<svg xmlns="http://www.w3.org/2000/svg" viewBox="0 0 388 102" preserveAspectRatio="none">
<defs>
<style>.cls-1,.cls-2{fill:none;stroke:#1355ac;stroke-miterlimit:10;}.cls-1{stroke-width:4px;}.cls-2{stroke-width:8px;}</style>
</defs>
<path class="cls-1" d="M0,4C26,4,26,98.43,51.93,98.43S77.9,4,103.87,4s26,94.43,51.93,94.43S181.76,4,207.73,4s26,94.43,51.94,94.43S285.63,4,311.6,4s26,94.43,51.94,94.43"/>
<path class="cls-2" d="M25.41,4c26,0,26,94.43,51.93,94.43S103.31,4,129.28,4s26,94.43,51.93,94.43S207.17,4,233.14,4s26,94.43,51.94,94.43S311,4,337,4,363,98.43,389,98.43"/>
</svg>